<?xml version="1.0" encoding="utf-8"?>
<!-- Generator: Adobe Illustrator 27.3.1, SVG Export Plug-In . SVG Version: 6.00 Build 0)  -->
<svg version="1.1" xmlns="http://www.w3.org/2000/svg" xmlns:xlink="http://www.w3.org/1999/xlink" x="0px" y="0px"
	 viewBox="0 0 300 300" style="enable-background:new 0 0 300 300;" xml:space="preserve">
<style type="text/css">
	.st0{fill:#FFFFFF;}
</style>
<g id="Calque_2">
	<rect class="st0" width="300" height="300"/>
</g>
<g id="Calque_1">
	<g>
		<path d="M259.4,153c0-61.5-49-111.4-109.4-111.4S40.6,91.4,40.6,153c0,48.8,30.9,90.4,73.8,105.4c2.6-1.9,5.6-4.3,5.6-8.3
			c0-6.1-0.1-21.9-0.1-21.9s-4.8,0.8-11.5,0.8c-17.1,0-22.5-11-25.1-17.2c-3.3-8-7.7-11.8-12.3-14.8c-2.8-1.9-3.5-4-0.2-4.7
			c15.1-2.9,19,17.4,29.1,20.6c7.2,2.3,16.5,1.3,21.1-1.7c0.6-6.2,5-11.5,8.7-14.3c-25.7-2.5-40.9-11.5-48.8-26.1l-0.8-1.6l-2-4.6
			l-0.6-1.7c-2.5-7.4-3.6-15.8-3.6-25.2c0-16.7,5.2-23.1,12.1-32c-5.3-19.1,1.9-32.1,1.9-32.1s11.1-2.3,32.1,12.9
			c11.4-4.9,41.8-5.4,56.1-1.1c8.8-5.9,24.9-14.3,31.5-11.9c1.8,2.9,5.6,11.2,2.3,29.6c2.2,4,13.7,12.6,13.7,36.9
			c-0.2,9-1.1,16.5-2.8,22.9l-0.9,3.3c0,0-0.5,1.5-1.1,3l-0.7,1.6c-7.6,16.9-23.2,23.3-48.5,25.9c8.2,5.2,10.5,11.8,10.5,29.5
			s-0.2,20.1-0.2,24.2c0,3.6,2.9,6.2,5.4,8.1C228.4,243.5,259.4,201.9,259.4,153z"/>
	</g>
</g>
</svg>
