<?xml version="1.0" encoding="utf-8"?>
<!-- Generator: Adobe Illustrator 27.3.1, SVG Export Plug-In . SVG Version: 6.00 Build 0)  -->
<svg version="1.1" id="Calque_1" xmlns="http://www.w3.org/2000/svg" xmlns:xlink="http://www.w3.org/1999/xlink" x="0px" y="0px"
	 viewBox="0 0 300 264" style="enable-background:new 0 0 300 264;" xml:space="preserve">
<style type="text/css">
	.st0{fill:#FFFFFF;}
</style>
<g id="XMLID_00000156559728557258717990000001593947831113615529_">
	<g>
		<path class="st0" d="M164.49,95.93C52.34,176.66,0.86,71.07,0.16,69.57c1.36,0.46,92.52,32.08,173.45-39.29
			c-8.18-2.1-16.75-3.21-25.59-3.21c-34.77,0-65.48,17.27-84.07,43.71c-12.02,0.57-22.86-0.1-31.98-1.25
			C54.23,28.27,97.85,0.23,148.02,0.23c72.77,0,131.76,59,131.76,131.76c0,7.06-0.55,14-1.62,20.76
			c-7.62-5.24-16.96-10.17-27.89-13.22c0.3-3.2,0.45-6.46,0.45-9.75c0-28.08-11.27-53.53-29.54-72.07
			c5.11,38.3-67.86,112.68-68.97,113.8c91.83-69.85,147.64,10.56,147.64,10.56s-102.88,3.47-162.62,49.86
			c3.54,0.37,7.13,0.56,10.78,0.56c29.77,0,56.57-12.66,75.32-32.88c0,0,0.01,0,0.01-0.01c15.51-3.75,30.11-6.23,42.15-7.84
			c-21.79,42.75-66.22,72.03-117.48,72.03c-72.77,0-131.76-59-131.76-131.78c0-9.15,0.93-18.08,2.71-26.71
			c7.04,7,15.85,13.95,26.48,19.14c-0.09,1.77-0.14,3.56-0.14,5.35c0,29.31,12.28,55.76,31.98,74.47v-0.01
			C85.82,179.16,163.28,97.22,164.49,95.93z"/>
	</g>
	<g>
	</g>
</g>
</svg>
