<?xml version="1.0" encoding="utf-8"?>
<!-- Generator: Adobe Illustrator 27.3.1, SVG Export Plug-In . SVG Version: 6.00 Build 0)  -->
<svg version="1.1" id="Calque_1" xmlns="http://www.w3.org/2000/svg" xmlns:xlink="http://www.w3.org/1999/xlink" x="0px" y="0px"
	 viewBox="0 0 800 800" style="enable-background:new 0 0 800 800;" xml:space="preserve">
<style type="text/css">
	.st0{fill:#F16529;}
	.st1{fill:#EBEBEB;}
	.st2{fill:#FFFFFF;}
</style>
<path class="st0" d="M390.9,800l274.7-76.2L730.3-0.3H390.9V800z"/>
<path class="st1" d="M243.9,207.6h147V103.7H130.3l2.5,27.9L158.3,418h232.6V314.1H253.4L243.9,207.6z M267.3,470H163l14.6,163.2
	l212.9,59.1l0.5-0.1V584l-0.5,0.1l-115.8-31.3L267.3,470L267.3,470z"/>
<path class="st2" d="M390.6,418h128l-12.1,134.8l-115.9,31.3v108.1l213.1-59.1l1.6-17.6L629.7,342l2.5-27.9H390.6V418L390.6,418z
	 M390.6,207.4v0.3h251.1l2.1-23.4l4.7-52.7l2.5-27.9H390.6V207.4L390.6,207.4z"/>
</svg>
