<?xml version="1.0" encoding="utf-8"?>
<!-- Generator: Adobe Illustrator 27.3.1, SVG Export Plug-In . SVG Version: 6.00 Build 0)  -->
<svg version="1.1" id="Calque_1" xmlns="http://www.w3.org/2000/svg" xmlns:xlink="http://www.w3.org/1999/xlink" x="0px" y="0px"
	 viewBox="0 0 300 300" style="enable-background:new 0 0 300 300;" xml:space="preserve">
<style type="text/css">
	.st0{fill:#E44D26;}
	.st1{fill:#F16529;}
	.st2{fill:#EBEBEB;}
	.st3{fill:#FFFFFF;}
</style>
<circle class="st0" cx="150.2" cy="150" r="150"/>
<g>
	<path class="st1" d="M144.5,286.4l84.1-23.3l19.8-221.8h-104V286.4z"/>
	<path class="st2" d="M99.4,104.9h45V73.1H64.6l0.8,8.5l7.8,87.7h71.2v-31.8h-42.1L99.4,104.9z M106.6,185.3H74.7l4.5,50l65.2,18.1
		l0.2,0v-33.1l-0.2,0l-35.5-9.6L106.6,185.3L106.6,185.3z"/>
	<path class="st3" d="M144.4,169.4h39.2l-3.7,41.3l-35.5,9.6v33.1l65.3-18.1l0.5-5.4l7.5-83.8l0.8-8.5h-74V169.4L144.4,169.4z
		 M144.4,104.8L144.4,104.8l76.9,0.1l0.6-7.2l1.4-16.1l0.8-8.5h-79.8V104.8L144.4,104.8z"/>
</g>
</svg>
