<?xml version="1.0" encoding="utf-8"?>
<!-- Generator: Adobe Illustrator 27.3.1, SVG Export Plug-In . SVG Version: 6.00 Build 0)  -->
<svg version="1.1" id="Calque_1" xmlns="http://www.w3.org/2000/svg" xmlns:xlink="http://www.w3.org/1999/xlink" x="0px" y="0px"
	 viewBox="0 0 300 300" style="enable-background:new 0 0 300 300;" xml:space="preserve">
<style type="text/css">
	.st0{fill:#F7DF1E;}
</style>
<circle class="st0" cx="150.2" cy="149.5" r="150"/>
<g>
	<g>
		<path d="M50.3,194.4l23.2-14.1c4.5,7.9,8.6,14.7,18.3,14.7c9.4,0,15.3-3.7,15.3-17.9V80.3h28.5v97.2c0,29.5-17.3,42.9-42.5,42.9
			C70.2,220.4,57,208.6,50.3,194.4"/>
		<path d="M151,191.3l23.2-13.4c6.1,10,14.1,17.3,28.1,17.3c11.8,0,19.3-5.9,19.3-14.1c0-9.8-7.7-13.2-20.8-18.9l-7.1-3.1
			c-20.5-8.7-34.2-19.7-34.2-42.9c0-21.4,16.3-37.6,41.7-37.6c18.1,0,31.1,6.3,40.5,22.8l-22.2,14.2c-4.9-8.7-10.2-12.2-18.3-12.2
			c-8.3,0-13.6,5.3-13.6,12.2c0,8.6,5.3,12,17.5,17.3l7.1,3.1c24.2,10.4,37.8,20.9,37.8,44.7c0,25.6-20.1,39.7-47.2,39.7
			C176.4,220.4,159.3,207.8,151,191.3"/>
	</g>
</g>
</svg>
