<?xml version="1.0" encoding="utf-8"?>
<!-- Generator: Adobe Illustrator 27.3.1, SVG Export Plug-In . SVG Version: 6.00 Build 0)  -->
<svg version="1.1" id="Calque_1" xmlns="http://www.w3.org/2000/svg" xmlns:xlink="http://www.w3.org/1999/xlink" x="0px" y="0px"
	 viewBox="0 0 800 800" style="enable-background:new 0 0 800 800;" xml:space="preserve">
<g>
	<path d="M136.3,518.4l61.2-37.1c11.8,20.9,22.6,38.7,48.3,38.7c24.7,0,40.3-9.7,40.3-47.3V217.2h75.2v256.7
		c0,77.9-45.6,113.3-112.2,113.3C188.9,587.1,154,556,136.3,518.4"/>
	<path d="M402.2,510.4l61.2-35.4c16.1,26.3,37.1,45.6,74.1,45.6c31.2,0,51-15.6,51-37.1c0-25.8-20.4-34.9-54.8-49.9l-18.8-8.1
		c-54.2-23.1-90.2-52.1-90.2-113.3c0-56.4,43-99.3,110.1-99.3c47.8,0,82.2,16.6,106.9,60.1l-58.5,37.6
		c-12.9-23.1-26.8-32.2-48.3-32.2c-22,0-36,14-36,32.2c0,22.6,14,31.7,46.2,45.6l18.8,8.1c63.9,27.4,99.9,55.3,99.9,118.1
		c0,67.7-53.2,104.7-124.6,104.7C469.3,587.1,424.2,553.9,402.2,510.4"/>
</g>
</svg>
