<?xml version="1.0" encoding="utf-8"?>
<!-- Generator: Adobe Illustrator 27.3.1, SVG Export Plug-In . SVG Version: 6.00 Build 0)  -->
<svg version="1.1" id="Calque_1" xmlns="http://www.w3.org/2000/svg" xmlns:xlink="http://www.w3.org/1999/xlink" x="0px" y="0px"
	 viewBox="0 0 300 300" style="enable-background:new 0 0 300 300;" xml:space="preserve">
<style type="text/css">
	.st0{fill:#028CB0;}
	.st1{fill:#FFFFFF;}
</style>
<circle class="st0" cx="150.2" cy="149.5" r="150"/>
<g>
	<path class="st1" d="M40,147.6c0,43.6,25.4,81.2,62.1,99.1L49.6,102.8C43.3,116.9,40,132.2,40,147.6z M150.2,257.8
		c12.8,0,25.1-2.3,36.6-6.3L186,250l-33.9-92.7l-33,96C128.9,256.2,139.3,257.8,150.2,257.8z M165.3,96l39.8,118.4l11-36.7
		c4.7-15.2,8.3-26.2,8.3-35.6c0-13.7-4.9-23-9-30.3c-5.6-9.2-10.9-16.9-10.9-25.9c0-10.2,7.6-19.5,18.6-19.5h1.4
		c-20.3-18.6-46.8-28.9-74.4-28.9c-18.2,0-36.2,4.5-52.3,13.2S68.2,71.9,58.2,87.1l7,0.2c11.5,0,29.3-1.5,29.3-1.5
		c6.1-0.3,6.7,8.4,0.8,9.1c0,0-6,0.8-12.7,1.1l40.2,119.3l24.1-72.2L129.8,96c-3.8-0.2-7.7-0.5-11.5-1c-6-0.4-5.3-9.5,0.7-9.2
		c0,0,18.1,1.5,29,1.5c11.5,0,29.3-1.5,29.3-1.5c6-0.3,6.7,8.4,0.8,9.1C178,94.9,172,95.6,165.3,96z M205.5,242.8
		c16.7-9.7,30.5-23.6,40.1-40.3c9.6-16.7,14.7-35.6,14.7-54.9c0-19.1-4.9-37.1-13.5-52.8c1.7,17.3-0.9,34.7-7.6,50.8L205.5,242.8z
		 M150.2,274.5c-33.7,0-65.9-13.4-89.7-37.2c-23.8-23.8-37.2-56.1-37.2-89.7s13.4-65.9,37.2-89.7c23.8-23.8,56.1-37.2,89.7-37.2
		s65.9,13.4,89.7,37.2c23.8,23.8,37.2,56.1,37.2,89.7s-13.4,65.9-37.2,89.7S183.8,274.5,150.2,274.5z"/>
</g>
</svg>
