<?xml version="1.0" encoding="utf-8"?>
<!-- Generator: Adobe Illustrator 27.3.1, SVG Export Plug-In . SVG Version: 6.00 Build 0)  -->
<svg version="1.1" id="Calque_1" xmlns="http://www.w3.org/2000/svg" xmlns:xlink="http://www.w3.org/1999/xlink" x="0px" y="0px"
	 viewBox="0 0 800 800" style="enable-background:new 0 0 800 800;" xml:space="preserve">
<style type="text/css">
	.st0{fill:#FFFFFF;}
</style>
<path class="st0" d="M52.9,400c0,137.5,80,256,195.7,312.3L83.1,258.8C63.2,303.2,52.9,351.3,52.9,400z M400,747.1
	c40.3,0,79.1-7.1,115.4-19.7l-2.5-4.6L406.2,430.5l-104,302.5C332.9,742.2,365.8,747.1,400,747.1z M447.7,237.2l125.5,373.2
	L608,494.8c14.8-48,26.2-82.5,26.2-112.3c0-43.1-15.4-72.6-28.3-95.4c-17.8-28.9-34.2-53.2-34.2-81.5c0-32,24-61.5,58.5-61.5h4.3
	c-64-58.7-147.6-91.2-234.5-91.1c-57.5,0-114.1,14.3-164.7,41.6c-50.6,27.3-93.6,66.7-125.2,114.8l22.2,0.6
	c36.3,0,92.3-4.6,92.3-4.6c19.1-0.9,21.2,26.5,2.5,28.6c0,0-18.8,2.5-40,3.4l126.8,376l76-227.7l-54.2-148.3
	c-12.1-0.7-24.2-1.7-36.3-3.1c-18.8-1.2-16.6-29.8,2.2-28.9c0,0,57.2,4.6,91.4,4.6c36.3,0,92.3-4.6,92.3-4.6
	c18.8-0.9,21.2,26.5,2.5,28.6C487.7,233.8,468.9,236,447.7,237.2z M574.5,700c52.5-30.5,96.1-74.3,126.4-126.9
	c30.3-52.6,46.2-112.3,46.2-173.1c0-60.3-15.4-116.9-42.5-166.5c5.5,54.5-2.8,109.5-24,160L574.5,700z M400,800
	c-106.1,0-207.8-42.1-282.8-117.2C42.1,607.8,0,506.1,0,400s42.1-207.8,117.2-282.8C192.2,42.1,293.9,0,400,0
	s207.8,42.1,282.8,117.2c75,75,117.2,176.8,117.2,282.8s-42.1,207.8-117.2,282.8S506.1,800,400,800z"/>
</svg>
