<?xml version="1.0" encoding="utf-8"?>
<!-- Generator: Adobe Illustrator 27.3.1, SVG Export Plug-In . SVG Version: 6.00 Build 0)  -->
<svg version="1.1" xmlns="http://www.w3.org/2000/svg" xmlns:xlink="http://www.w3.org/1999/xlink" x="0px" y="0px"
	 viewBox="0 0 300 300" style="enable-background:new 0 0 300 300;" xml:space="preserve">
<g id="Calque_1">
	<g>
		<g>
			<path d="M247.61,151.01c-0.13,20.91-6.08,39.87-18.76,57.6c-1.66,2.32-1.36,1.96-3.61,4.61c-1.4,1.66-2.86,3.27-4.36,4.84
				c-1.8,1.88-3.66,3.71-5.59,5.46c-0.96,0.88-1.94,1.74-2.94,2.58c-0.35,0.29-3.94,3.16-2.5,2.07c-4.17,3.16-8.6,5.99-13.18,8.51
				c-4.9,2.69-8.55,4.32-12.56,5.76c-10.77,3.88-19.52,5.57-29.76,5.96c-11.99,0.45-20.04-0.52-31.18-3.71
				c-4.81-1.38-9.53-3.1-12.49-4.46c-5.17-2.37-10.15-5.15-14.89-8.29c-4.7-3.11-5.71-3.9-9.8-7.54
				c-4.22-3.75-8.15-7.82-11.75-12.17c-1.96-2.37-4.63-6.1-7.1-10.15c-1.37-2.24-2.66-4.52-3.87-6.85
				c-0.61-1.17-1.19-2.35-1.75-3.54c-0.2-0.42-2.04-4.69-1.35-2.99c-2-4.95-3.62-10.05-4.86-15.24c-1.42-5.93-1.88-8.83-2.28-14.08
				c-0.87-11.56-0.13-20.77,2.28-30.79c2.73-11.36,5.75-18.68,11.84-28.62c2.49-4.07,5.13-7.77,7.1-10.15
				c3.6-4.35,7.53-8.42,11.75-12.17c4.09-3.64,5.24-4.51,9.8-7.54c4.74-3.14,9.72-5.92,14.89-8.29c2.85-1.31,7.2-2.92,11.85-4.28
				c2.58-0.76,5.19-1.41,7.82-1.98c1.32-0.28,2.65-0.54,3.99-0.78c0.89-0.16,1.79-0.3,2.69-0.44c-1.15,0.14-0.93,0.11,0.67-0.08
				c5.54-0.58,11.09-0.83,16.67-0.62c6.19,0.23,9.09,0.59,14.29,1.64c12.47,2.51,20.97,5.78,31.45,12.03
				c2.62,1.56,5.18,3.23,7.66,5.01c2.22,1.59,2.78,2.01,5.6,4.46c4.26,3.7,8.24,7.73,11.89,12.03c3.03,3.57,6.15,7.99,9.28,13.4
				c2.84,4.88,5.23,9.97,6.59,13.6C245.84,128.42,247.54,138.39,247.61,151.01c0.1,16.47,25.71,16.51,25.61,0
				c-0.32-51.6-32.82-97.62-81.04-115.65c-47.61-17.8-104.29-2.48-136.45,36.84c-32.78,40.08-38.04,97.55-11.03,142.23
				c26.86,44.42,79.34,67.03,130.1,57.13c49.05-9.56,89.23-51.16,96.74-100.61c1.01-6.62,1.65-13.24,1.69-19.94
				C273.32,134.53,247.72,134.52,247.61,151.01z"/>
		</g>
	</g>
</g>
<g id="Calque_2">
	<g>
		<g>
			<path d="M130.4,97.03c0,19.33,0,38.65,0,57.98c0,8.16,7.17,15.97,15.6,15.6c8.45-0.38,15.6-6.85,15.6-15.6
				c0-19.33,0-38.65,0-57.98c0-8.16-7.17-15.97-15.6-15.6C137.55,81.82,130.4,88.29,130.4,97.03L130.4,97.03z"/>
		</g>
	</g>
	<g>
		<g>
			<path d="M204.46,139.42c-19.33,0-38.65,0-57.98,0c-8.16,0-15.97,7.17-15.6,15.6c0.38,8.45,6.85,15.6,15.6,15.6
				c19.33,0,38.65,0,57.98,0c8.16,0,15.97-7.17,15.6-15.6C219.68,146.56,213.2,139.42,204.46,139.42L204.46,139.42z"/>
		</g>
	</g>
</g>
</svg>
