<?xml version="1.0" encoding="utf-8"?>
<!-- Generator: Adobe Illustrator 27.3.1, SVG Export Plug-In . SVG Version: 6.00 Build 0)  -->
<svg version="1.1" id="Calque_1" xmlns="http://www.w3.org/2000/svg" xmlns:xlink="http://www.w3.org/1999/xlink" x="0px" y="0px"
	 viewBox="0 0 300 300" style="enable-background:new 0 0 300 300;" xml:space="preserve">
<g>
	<g>
		<path d="M25.98,97.05c28.58,0,57.17,0,85.75,0c4.16,0,8.31,0,12.47,0c8.73,0,17.1-7.68,16.69-16.69
			c-0.41-9.04-7.33-16.69-16.69-16.69c-28.58,0-57.17,0-85.75,0c-4.16,0-8.31,0-12.47,0c-8.73,0-17.1,7.68-16.69,16.69
			C9.7,89.4,16.62,97.05,25.98,97.05L25.98,97.05z"/>
	</g>
</g>
<g>
	<g>
		<path d="M58.4,31.25c0,28.58,0,57.17,0,85.75c0,4.16,0,8.31,0,12.47c0,8.73,7.68,17.1,16.69,16.69
			c9.04-0.41,16.69-7.33,16.69-16.69c0-28.58,0-57.17,0-85.75c0-4.16,0-8.31,0-12.47c0-8.73-7.68-17.1-16.69-16.69
			C66.05,14.96,58.4,21.89,58.4,31.25L58.4,31.25z"/>
	</g>
</g>
<g>
	<g>
		<path d="M181.68,97.05c26.87,0,53.74,0,80.6,0c3.91,0,7.82,0,11.73,0c8.73,0,17.1-7.68,16.69-16.69
			c-0.41-9.04-7.33-16.69-16.69-16.69c-26.87,0-53.74,0-80.6,0c-3.91,0-7.82,0-11.73,0c-8.73,0-17.1,7.68-16.69,16.69
			C165.4,89.4,172.33,97.05,181.68,97.05L181.68,97.05z"/>
	</g>
</g>
<g>
	<g>
		<path d="M28.56,207.36c20.21,20.21,40.42,40.42,60.64,60.64c2.94,2.94,5.88,5.88,8.82,8.82c6.18,6.18,17.51,6.64,23.61,0
			c6.12-6.66,6.6-17.01,0-23.61c-20.21-20.21-40.42-40.42-60.64-60.64c-2.94-2.94-5.88-5.88-8.82-8.82
			c-6.18-6.18-17.51-6.64-23.61,0C22.45,190.42,21.97,200.76,28.56,207.36L28.56,207.36z"/>
	</g>
</g>
<g>
	<g>
		<path d="M98.02,183.75c-20.21,20.21-40.42,40.42-60.64,60.64c-2.94,2.94-5.88,5.88-8.82,8.82c-6.18,6.18-6.64,17.51,0,23.61
			c6.66,6.12,17.01,6.6,23.61,0c20.21-20.21,40.42-40.42,60.64-60.64c2.94-2.94,5.88-5.88,8.82-8.82c6.18-6.18,6.64-17.51,0-23.61
			C114.96,177.63,104.62,177.15,98.02,183.75L98.02,183.75z"/>
	</g>
</g>
<g>
	<g>
		<path d="M274.02,206.07c-28.58,0-57.17,0-85.75,0c-4.16,0-8.31,0-12.47,0c-8.73,0-17.1,7.68-16.69,16.69
			c0.41,9.04,7.33,16.69,16.69,16.69c28.58,0,57.17,0,85.75,0c4.16,0,8.31,0,12.47,0c8.73,0,17.1-7.68,16.69-16.69
			C290.3,213.72,283.38,206.07,274.02,206.07L274.02,206.07z"/>
	</g>
</g>
<g>
	<g>
		<path d="M224.9,159.12C224.9,159.12,224.9,159.12,224.9,159.12c-2.3-0.09-4.44,0.39-6.43,1.44c-2.07,0.67-3.86,1.82-5.37,3.45
			c-1.63,1.51-2.78,3.3-3.45,5.37c-1.05,1.99-1.52,4.13-1.44,6.43c0.2,1.48,0.4,2.96,0.6,4.44c0.79,2.83,2.22,5.28,4.29,7.37
			c1.13,0.87,2.25,1.74,3.38,2.61c2.6,1.51,5.41,2.27,8.43,2.28c0,0,0,0,0,0c2.3,0.09,4.44-0.39,6.43-1.44
			c2.07-0.67,3.86-1.82,5.37-3.45c1.63-1.51,2.78-3.3,3.45-5.37c1.05-1.99,1.52-4.13,1.44-6.43c-0.2-1.48-0.4-2.96-0.6-4.44
			c-0.79-2.83-2.22-5.28-4.29-7.37c-1.13-0.87-2.25-1.74-3.38-2.61C230.73,159.89,227.92,159.13,224.9,159.12L224.9,159.12z"/>
	</g>
</g>
<g>
	<g>
		<path d="M225.34,252.06C225.34,252.06,225.34,252.06,225.34,252.06c-2.3-0.09-4.44,0.39-6.43,1.44c-2.07,0.67-3.86,1.82-5.37,3.45
			c-1.63,1.51-2.78,3.3-3.45,5.37c-1.05,1.99-1.52,4.13-1.44,6.43c0.2,1.48,0.4,2.96,0.6,4.44c0.79,2.83,2.22,5.28,4.29,7.37
			c1.13,0.87,2.25,1.74,3.38,2.61c2.6,1.51,5.41,2.27,8.43,2.28c0,0,0,0,0,0c2.3,0.09,4.44-0.39,6.43-1.44
			c2.07-0.67,3.86-1.82,5.37-3.45c1.63-1.51,2.78-3.3,3.45-5.37c1.05-1.99,1.52-4.13,1.44-6.43c-0.2-1.48-0.4-2.96-0.6-4.44
			c-0.79-2.83-2.22-5.28-4.29-7.37c-1.13-0.87-2.25-1.74-3.38-2.61C231.17,252.83,228.36,252.07,225.34,252.06L225.34,252.06z"/>
	</g>
</g>
</svg>
