<?xml version="1.0" encoding="utf-8"?>
<!-- Generator: Adobe Illustrator 27.3.1, SVG Export Plug-In . SVG Version: 6.00 Build 0)  -->
<svg version="1.1" id="Calque_1" xmlns="http://www.w3.org/2000/svg" xmlns:xlink="http://www.w3.org/1999/xlink" x="0px" y="0px"
	 viewBox="0 0 300 300" style="enable-background:new 0 0 300 300;" xml:space="preserve">
<g>
	<g>
		<path d="M259.83,260.14c-24.3,0-48.61,0-72.91,0c-1.34,0-3.06-0.29-4.37,0c-0.17,0.04-0.4,0-0.58,0c2.05,0.05,1.65,0.65,0.18-0.08
			c0.95,0.18,1.74,0.63,2.37,1.37c-1.17-1.22-1.16-1.16,0.02,0.18c1.54,2.92,0.32-1.87,0.4,1.52c0-0.05,0-0.1,0-0.15
			c-0.01-0.38-0.03-0.78,0-1.16c0.13-1.95,0-3.96,0-5.91c0-14.67,0-29.33,0-44c0-6.67,0-13.35,0-20.02c0-1.67,0.09-3.35,0-5.02
			c-0.02-0.44-0.01-0.9,0-1.34c0-0.08,0-0.17,0-0.25c-0.08,3.35,1.13-1.4-0.4,1.5c-0.3,0.35-0.59,0.7-0.89,1.05
			c1.22-1.17,1.16-1.16-0.18,0.02c-2.92,1.54,1.87,0.32-1.52,0.4c0.18,0,0.42-0.04,0.59,0c1.47,0.33,3.4,0,4.9,0
			c6.11,0,12.22,0,18.33,0c14.97,0,29.93,0,44.9,0c3.05,0,6.1-0.08,9.15,0c-3.39-0.08,1.4,1.14-1.52-0.4
			c-0.35-0.3-0.7-0.59-1.05-0.89c1.17,1.22,1.16,1.16-0.02-0.18c-1.54-2.92-0.32,1.87-0.4-1.52c0,0.05,0,0.1,0,0.15
			c0.02,1.12,0,2.24,0,3.36c0,15.59,0,31.17,0,46.76c0,7.37,0,14.74,0,22.11c0,1.69,0.02,3.39,0,5.08c-0.02,1.52,1.5-2.98-0.08,0.21
			c0.58-1.17,2.56-2.88,0.5-1.5c0.63-0.74,1.41-1.19,2.37-1.37C257.95,260.49,258.01,260.51,259.83,260.14
			c-7.81,0.42-15.36,6.59-14.98,14.98c0.35,7.75,6.6,15.44,14.98,14.98c15.38-0.84,26.55-12.13,26.98-27.58c0.14-4.82,0-9.67,0-14.5
			c0-16.68,0-33.37,0-50.05c0-4.17,0.15-8.36,0-12.52c-0.55-15.21-11.88-26.59-27.09-27.19c-12.24-0.49-24.59,0-36.83,0
			c-13.4,0-26.83-0.25-40.23,0c-14.81,0.27-26.35,10.88-27.61,25.68c-0.31,3.68-0.07,7.45-0.07,11.13c0,16.54,0,33.07,0,49.61
			c0,5.61-0.04,11.22,0,16.83c0.09,12.25,6.9,23.9,19.22,27.44c5.08,1.46,10.4,1.15,15.61,1.15c7.39,0,14.79,0,22.18,0
			c14.99,0,29.98,0,44.98,0c0.96,0,1.92,0,2.87,0c7.84,0,15.35-6.89,14.98-14.98C274.45,267,268.23,260.14,259.83,260.14z"/>
	</g>
</g>
<g>
	<g>
		<path d="M118.8,116.98c-24.3,0-48.61,0-72.91,0c-1.34,0-3.06-0.29-4.37,0c-0.17,0.04-0.4,0-0.58,0c2.05,0.05,1.65,0.65,0.18-0.08
			c0.95,0.18,1.74,0.63,2.37,1.37c-1.17-1.22-1.16-1.16,0.02,0.18c1.54,2.92,0.32-1.87,0.4,1.52c0-0.05,0-0.1,0-0.15
			c-0.01-0.38-0.03-0.78,0-1.16c0.13-1.95,0-3.96,0-5.91c0-14.67,0-29.33,0-44c0-6.67,0-13.35,0-20.02c0-1.67,0.09-3.35,0-5.02
			c-0.02-0.44-0.01-0.9,0-1.34c0-0.08,0-0.17,0-0.25c-0.08,3.35,1.13-1.4-0.4,1.5c-0.3,0.35-0.59,0.7-0.89,1.05
			c1.22-1.17,1.16-1.16-0.18,0.02c-2.92,1.54,1.87,0.32-1.52,0.4c0.18,0,0.42-0.04,0.59,0c1.47,0.33,3.4,0,4.9,0
			c6.11,0,12.22,0,18.33,0c14.97,0,29.93,0,44.9,0c3.05,0,6.1-0.08,9.15,0c-3.39-0.08,1.4,1.14-1.52-0.4
			c-0.35-0.3-0.7-0.59-1.05-0.89c1.17,1.22,1.16,1.16-0.02-0.18c-1.54-2.92-0.32,1.87-0.4-1.52c0,0.05,0,0.1,0,0.15
			c0.02,1.12,0,2.24,0,3.36c0,15.59,0,31.17,0,46.76c0,7.37,0,14.74,0,22.11c0,1.69,0.02,3.39,0,5.08c-0.02,1.52,1.5-2.98-0.08,0.21
			c0.58-1.17,2.56-2.88,0.5-1.5c0.63-0.74,1.41-1.19,2.37-1.37C116.92,117.33,116.98,117.35,118.8,116.98
			c-7.81,0.42-15.36,6.59-14.98,14.98c0.35,7.75,6.6,15.44,14.98,14.98c15.38-0.84,26.55-12.13,26.98-27.58c0.14-4.82,0-9.67,0-14.5
			c0-16.68,0-33.37,0-50.05c0-4.17,0.15-8.36,0-12.52c-0.55-15.21-11.88-26.59-27.09-27.19c-12.24-0.49-24.59,0-36.83,0
			c-13.4,0-26.83-0.25-40.23,0c-14.81,0.27-26.35,10.88-27.61,25.68c-0.31,3.68-0.07,7.45-0.07,11.13c0,16.54,0,33.07,0,49.61
			c0,5.61-0.04,11.22,0,16.83c0.09,12.25,6.9,23.9,19.22,27.44c5.08,1.46,10.4,1.15,15.61,1.15c7.39,0,14.79,0,22.18,0
			c14.99,0,29.98,0,44.98,0c0.96,0,1.92,0,2.87,0c7.84,0,15.35-6.89,14.98-14.98C133.42,123.84,127.2,116.98,118.8,116.98z"/>
	</g>
</g>
</svg>
