<?xml version="1.0" encoding="utf-8"?>
<!-- Generator: Adobe Illustrator 27.3.1, SVG Export Plug-In . SVG Version: 6.00 Build 0)  -->
<svg version="1.1" id="Calque_1" xmlns="http://www.w3.org/2000/svg" xmlns:xlink="http://www.w3.org/1999/xlink" x="0px" y="0px"
	 viewBox="0 0 300 300" style="enable-background:new 0 0 300 300;" xml:space="preserve">
<g>
	<g>
		<path d="M27.3,49.56c26.55,26.55,53.09,53.09,79.64,79.64c3.76,3.76,7.52,7.52,11.29,11.29c5.96,5.96,16.1,5.96,22.06,0
			c5.98-5.98,5.97-16.08,0-22.06c-26.55-26.55-53.09-53.09-79.64-79.64c-3.76-3.76-7.52-7.52-11.29-11.29
			c-5.96-5.96-16.1-5.96-22.06,0C21.32,33.48,21.33,43.58,27.3,49.56L27.3,49.56z"/>
	</g>
</g>
<g>
	<g>
		<path d="M118.22,27.5c-26.55,26.55-53.09,53.09-79.64,79.64c-3.76,3.76-7.52,7.52-11.29,11.29c-5.96,5.96-5.96,16.1,0,22.06
			c5.98,5.98,16.08,5.97,22.06,0c26.55-26.55,53.09-53.09,79.64-79.64c3.76-3.76,7.52-7.52,11.29-11.29c5.96-5.96,5.96-16.1,0-22.06
			C134.3,21.53,124.2,21.53,118.22,27.5L118.22,27.5z"/>
	</g>
</g>
<g>
	<g>
		<path d="M249.49,213.38c-0.02,1.4-0.09,2.79-0.17,4.2c-0.17,2.94-0.08,0.8,0.03,0.15c-0.41,2.45-0.98,4.87-1.74,7.23
			c-0.34,1.06-0.71,2.11-1.11,3.15c1.04-2.65-0.05,0.05-0.4,0.69c-1.17,2.13-2.39,4.18-3.7,6.23c-2.18,3.44,1.89-1.83-0.88,1.14
			c-0.6,0.64-1.15,1.31-1.76,1.94c-0.9,0.95-1.84,1.86-2.81,2.74c0.09-0.08-3.19,2.64-1.52,1.35c1.67-1.29-1.8,1.21-1.69,1.14
			c-0.92,0.6-1.85,1.17-2.81,1.71c-0.96,0.55-1.95,1.02-2.92,1.54c-2.94,1.59,1.59-0.35-1.35,0.57c-2.15,0.68-4.26,1.39-6.46,1.87
			c-0.4,0.09-4.79,0.71-1.45,0.35c-1.15,0.12-2.31,0.21-3.47,0.25c-2.34,0.09-4.66,0.01-6.99-0.19c-2.57-0.22,3.34,0.85-0.81-0.14
			c-1.32-0.32-2.65-0.56-3.96-0.92c-1.3-0.36-2.55-0.82-3.83-1.22c-2.68-0.84-0.75-0.28-0.15-0.01c-2.2-1.01-4.33-2.16-6.37-3.47
			c-0.92-0.59-1.83-1.21-2.71-1.85c2.27,1.66-0.04-0.06-0.57-0.55c-1.76-1.66-3.41-3.35-5.06-5.12c-2.78-2.97,1.3,2.3-0.88-1.14
			c-0.59-0.93-1.22-1.82-1.78-2.76c-0.57-0.94-1.11-1.9-1.61-2.87c0.06,0.11-1.76-3.8-0.93-1.83c0.84,1.98-0.72-2.08-0.68-1.96
			c-0.35-1.06-0.67-2.14-0.95-3.22c-0.29-1.1-0.49-2.21-0.75-3.3c-0.8-3.34-0.09,1.68-0.21-1.5c-0.1-2.58-0.22-5.12-0.05-7.7
			c0.05-0.76,0.5-3.76,0.02-0.85c0.19-1.12,0.41-2.23,0.66-3.34c0.51-2.19,1.18-4.32,1.95-6.42c0.86-2.34-1.64,2.92,0.34-0.72
			c0.63-1.16,1.2-2.35,1.87-3.49c0.67-1.14,1.42-2.21,2.12-3.32c2.2-3.47-1.13,1.23,0.46-0.64c1.42-1.66,2.9-3.26,4.51-4.74
			c0.8-0.74,1.62-1.46,2.47-2.15c-2.17,1.78,0.07-0.03,0.68-0.41c2.25-1.41,4.48-2.75,6.87-3.91c2.24-1.08-3.23,0.96,0.75-0.29
			c1.07-0.34,2.11-0.72,3.19-1.03c1.08-0.31,2.17-0.59,3.27-0.83c-0.11,0.02,4.25-0.72,2.06-0.43c-2.21,0.3,2.29-0.15,2.16-0.14
			c1.17-0.06,2.34-0.08,3.51-0.07c1.17,0.02,2.33,0.12,3.49,0.16c1.79,0.19,1.84,0.18,0.15-0.03c0.67,0.11,1.34,0.23,2.01,0.37
			c2.44,0.5,4.76,1.26,7.13,2c3.93,1.24-2.26-1.38,1.35,0.57c1.17,0.63,2.35,1.2,3.49,1.87c1.14,0.67,2.21,1.42,3.32,2.12
			c2.57,1.63-1.28-1.38,1.14,0.88c1.93,1.81,3.75,3.62,5.55,5.55c2.8,3-0.91-1.41,0.5,0.61c0.88,1.26,1.73,2.53,2.51,3.86
			c0.44,0.76,0.87,1.53,1.27,2.31c0.41,0.78,0.79,1.58,1.16,2.38c-0.62-1.52-0.62-1.47,0.01,0.15c0.82,2.59,1.51,5.15,2.14,7.79
			c0.13,0.55,0.38,2.88,0.08,0.12C249.39,209.66,249.47,211.52,249.49,213.38c0.11,8.03,6.75,14.85,14.85,14.85
			c7.97,0,14.96-6.8,14.85-14.85c-0.38-28.12-17.8-52.37-44.01-62.21c-24.91-9.35-55.33-1.11-72.2,19.41
			c-17.75,21.59-21.12,52.4-6.47,76.68c14.59,24.19,42.76,35.94,70.26,30.7c30.48-5.81,52.02-34.16,52.43-64.58
			c0.11-8.03-6.9-14.85-14.85-14.85C256.2,198.53,249.6,205.33,249.49,213.38z"/>
	</g>
</g>
</svg>
