<?xml version="1.0" encoding="utf-8"?>
<!-- Generator: Adobe Illustrator 27.3.1, SVG Export Plug-In . SVG Version: 6.00 Build 0)  -->
<svg version="1.1" id="Calque_1" xmlns="http://www.w3.org/2000/svg" xmlns:xlink="http://www.w3.org/1999/xlink" x="0px" y="0px"
	 viewBox="0 0 300 300" style="enable-background:new 0 0 300 300;" xml:space="preserve">
<style type="text/css">
	.st0{fill:#FFFFFF;}
</style>
<g>
	<path class="st0" d="M83.16,28.84h141.01c6.6,0,12,5.4,12,12v215.63c0,6.6-5.4,12-12,12H83.16c-6.6,0-12-5.4-12-12V40.84
		C71.16,34.24,76.56,28.84,83.16,28.84z"/>
	<g>
		<path d="M83.16,50.21c24.17,0,48.33,0,72.5,0c16.23,0,32.45,0,48.68,0c5.13,0,10.27,0,15.4,0c1.19,0,2.51,0.16,3.69,0
			c0.21-0.03,0.48,0.06,0.68,0c0.24-0.08,10.08,1.67-1.5-0.24c-3.25-0.54-1.05-0.13-0.34,0.09c-0.95-0.37-1.9-0.75-2.84-1.12
			c-2.43-2.09-3.06-2.58-1.91-1.45c1.56,1.67-1.54-2.06-1.45-1.91c0.06,0.11-1.56-4.45-0.96-2.23c0.59,2.16-0.28-2.6-0.32-2.48
			c-0.05,0.14,0.04,0.32,0,0.47c-0.18,0.72,0,1.75,0,2.49c0,3.53,0,7.06,0,10.59c0,12.8,0,25.6,0,38.39c0,34.58,0,69.16,0,103.74
			c0,13.8,0,27.59,0,41.39c0,4.34,0,8.67,0,13.01c0,1.61-0.43,3.88,0,5.45c0.01,0.03-0.01,0.07,0,0.09
			c0.08,0.21-16.08,89.48,0.24-1.55c0.71-3.96-1.63,1.59,0.47-1.76c0.84-1.34,1.32-2.55,2.45-3.76c-0.64,0.69-2.05,1.42,0.3-0.07
			c1.36-0.87,2.43-1.56,4.01-2.07c-2.51,0.81-0.36-0.9,1.89-0.15c-0.47-0.16-1.27,0.01-1.76,0c-4-0.09-8.02,0-12.02,0
			c-15.26,0-30.52,0-45.79,0c-17.16,0-34.32,0-51.48,0c-6.38,0-12.76,0-19.14,0c-3.24,0-6.86-0.45-10.08,0
			c-0.21,0.03-0.48-0.07-0.68,0c-0.2,0.07,3.04,0.48,3.05,0.49c-0.94-0.22-2.31-1.1,0.21,0.23c1.02,0.24,1.88,0.74,2.59,1.5
			c1.29,1.11,1.54,1.28,0.74,0.51c-1.59-1.59,1.52,2.02,1.45,1.91c2.26,3.87,1.18,3.39,0.79,1.63c0.01,0.03,0.47,3.14,0.49,3.09
			c0.05-0.14-0.04-0.32,0-0.47c0.51-2.01,0-4.84,0-6.9c0-11.09,0-22.18,0-33.28c0-34.32,0-68.64,0-102.97
			c0-23.36,0.63-46.82,0-70.18c-0.01-0.52,0.12-1.19,0-1.7c0.01,0.05-1.11,4.84-0.15,1.77c-0.49,1.58-1.2,2.66-2.07,4.01
			c-1.5,2.35-0.76,0.94-0.07,0.3c-1.67,1.56-3.08,2.33-5.18,3.01C86.68,49.54,88.17,49.94,83.16,50.21
			c11.14-0.61,21.91-9.4,21.37-21.37c-0.5-11.06-9.42-22.02-21.37-21.37C64.55,8.48,50.27,22.23,49.79,41.14c-0.06,2.3,0,4.6,0,6.9
			c0,11.69,0,23.39,0,35.08c0,35.82,0,71.63,0,107.45c0,21.84-0.73,43.81,0,65.64c0.63,18.69,14.64,32.93,33.38,33.63
			c2.39,0.09,4.8,0,7.18,0c14.37,0,28.74,0,43.11,0c29.64,0,59.29,0.19,88.94,0c12.42-0.08,24.84-5.66,30.86-17.09
			c3.15-5.99,4.28-12.36,4.28-19c0-9.58,0-19.17,0-28.75c0-34.99,0-69.99,0-104.98c0-25.6,0-51.21,0-76.81
			c0-20.42-14.79-35.73-35.39-35.73c-11.76,0-23.52,0-35.28,0c-32.4,0-64.8,0-97.2,0c-2.17,0-4.34,0-6.5,0
			c-11.18,0-21.89,9.83-21.37,21.37C62.31,40.42,71.18,50.21,83.16,50.21z"/>
	</g>
</g>
</svg>
