<?xml version="1.0" encoding="utf-8"?>
<!-- Generator: Adobe Illustrator 27.3.1, SVG Export Plug-In . SVG Version: 6.00 Build 0)  -->
<svg version="1.1" xmlns="http://www.w3.org/2000/svg" xmlns:xlink="http://www.w3.org/1999/xlink" x="0px" y="0px"
	 viewBox="0 0 300 300" style="enable-background:new 0 0 300 300;" xml:space="preserve">
<style type="text/css">
	.st0{fill:#FFFFFF;}
	.st1{fill:#0A66C2;}
</style>
<g id="Calque_2">
	<rect x="28.2" y="28.1" class="st0" width="245.6" height="249.2"/>
</g>
<g id="Calque_1">
	<g>
		<g>
			<path class="st1" d="M255.6,255.6h-44.5V186c0-16.6-0.3-38-23.1-38c-23.2,0-26.7,18.1-26.7,36.8v70.8h-44.5V112.5h42.7V132h0.6
				c8.7-14.9,24.9-23.8,42.1-23.1c45.1,0,53.4,29.6,53.4,68.2L255.6,255.6z M66.7,92.9c-14.2,0-25.8-11.5-25.8-25.8
				c0-14.2,11.5-25.8,25.8-25.8c14.2,0,25.8,11.5,25.8,25.8c0,6.8-2.7,13.4-7.6,18.2C80.1,90.2,73.6,92.9,66.7,92.9 M89,255.6H44.5
				V112.5H89V255.6z M277.8,0H22.1C10.1-0.1,0.1,9.6,0,21.6v256.7c0.1,12.1,10,21.8,22.1,21.6h255.6c12.1,0.2,22.1-9.5,22.2-21.6
				V21.6C299.8,9.5,289.9-0.2,277.8,0"/>
		</g>
	</g>
</g>
</svg>
